<?xml version="1.0" encoding="UTF-8" standalone="no"?>
<svg
   xmlns:dc="http://purl.org/dc/elements/1.1/"
   xmlns:cc="http://creativecommons.org/ns#"
   xmlns:rdf="http://www.w3.org/1999/02/22-rdf-syntax-ns#"
   xmlns:svg="http://www.w3.org/2000/svg"
   xmlns="http://www.w3.org/2000/svg"
   xmlns:sodipodi="http://sodipodi.sourceforge.net/DTD/sodipodi-0.dtd"
   xmlns:inkscape="http://www.inkscape.org/namespaces/inkscape"
   viewBox="0 0 640 640"
   version="1.1"
   id="svg4"
   sodipodi:docname="users-regular-blue-icon.svg"
   width="480pt"
   height="480pt"
   inkscape:version="0.92.5 (2060ec1f9f, 2020-04-08)">
  <metadata
     id="metadata10">
    <rdf:RDF>
      <cc:Work
         rdf:about="">
        <dc:format>image/svg+xml</dc:format>
        <dc:type
           rdf:resource="http://purl.org/dc/dcmitype/StillImage" />
        <dc:title />
      </cc:Work>
    </rdf:RDF>
  </metadata>
  <defs
     id="defs8" />
  <sodipodi:namedview
     pagecolor="#ffffff"
     bordercolor="#666666"
     borderopacity="1"
     objecttolerance="10"
     gridtolerance="10"
     guidetolerance="10"
     inkscape:pageopacity="0"
     inkscape:pageshadow="2"
     inkscape:window-width="1848"
     inkscape:window-height="1016"
     id="namedview6"
     showgrid="false"
     inkscape:document-units="pt"
     units="pt"
     inkscape:zoom="0.4609375"
     inkscape:cx="-461.01695"
     inkscape:cy="238.64406"
     inkscape:window-x="72"
     inkscape:window-y="27"
     inkscape:window-maximized="1"
     inkscape:current-layer="svg4" />
  <path
     d="m 544.0499,288 c 44.2,0 80,-35.8 80,-80 0,-44.2 -35.8,-80 -80,-80 -44.2,0 -80,35.8 -80,80 0,44.2 35.8,80 80,80 z m 0,-112 c 17.6,0 32,14.4 32,32 0,17.6 -14.4,32 -32,32 -17.6,0 -32,-14.4 -32,-32 0,-17.6 14.4,-32 32,-32 z M 96.049901,288 c 44.199999,0 79.999999,-35.8 79.999999,-80 0,-44.2 -35.8,-80 -79.999999,-80 -44.2,0 -80,35.8 -80,80 0,44.2 35.8,80 80,80 z m 0,-112 c 17.599999,0 31.999999,14.4 31.999999,32 0,17.6 -14.4,32 -31.999999,32 -17.6,0 -32,-14.4 -32,-32 0,-17.6 14.4,-32 32,-32 z M 492.4499,386.9 c -27.5,-40.8 -80.7,-56 -127.8,-41.7 -14.2,4.3 -29.1,6.7 -44.7,6.7 -15.6,0 -30.5,-2.4 -44.7,-6.7 -47.1,-14.3 -100.3,0.8 -127.8,41.7 -12.4,18.4 -19.6,40.5 -19.6,64.3 V 496 c 0,26.5 21.5,48 48,48 h 288 c 26.5,0 48,-21.5 48,-48 v -44.8 c 0.2,-23.8 -7,-45.9 -19.4,-64.3 z m -28.4,109.1 h -288 v -44.8 c 0,-36.4 29.2,-66.2 65.4,-67.2 25.5,10.6 51.9,16 78.6,16 26.7,0 53.1,-5.4 78.6,-16 36.2,1 65.4,30.7 65.4,67.2 z m 92,-176 h -24 c -17.3,0 -33.4,5.3 -46.8,14.3 13.4,10.1 25.2,22.2 34.4,36.2 3.9,-1.4 8,-2.5 12.3,-2.5 h 24 c 19.8,0 36,16.2 36,36 0,13.2 10.8,24 24,24 13.2,0 24,-10.8 24,-24 0.1,-46.3 -37.6,-84 -83.9,-84 z m -236,0 c 61.9,0 112,-50.1 112,-112 0,-61.9 -50.1,-112 -112,-112 -61.9,0 -112,50.1 -112,112 0,61.9 50.1,112 112,112 z m 0,-176 c 35.3,0 64,28.7 64,64 0,35.3 -28.7,64 -64,64 -35.3,0 -64,-28.7 -64,-64 0,-35.3 28.7,-64 64,-64 z m -165.2,190.3 c -13.4,-9 -29.5,-14.3 -46.8,-14.3 H 84.049901 c -46.3,0 -84.00000024,37.7 -84.00000024,84 0,13.2 10.80000024,24 24.00000024,24 13.2,0 24,-10.8 24,-24 0,-19.8 16.2,-36 36,-36 H 108.0499 c 4.4,0 8.5,1.1 12.3,2.5 9.3,-14 21.1,-26.1 34.5,-36.2 z"
     id="path2"
     style="fill:#5599ff"
     inkscape:connector-curvature="0" />
</svg>
