<?xml version="1.0" encoding="UTF-8" standalone="no"?>
<svg
   xmlns:dc="http://purl.org/dc/elements/1.1/"
   xmlns:cc="http://creativecommons.org/ns#"
   xmlns:rdf="http://www.w3.org/1999/02/22-rdf-syntax-ns#"
   xmlns:svg="http://www.w3.org/2000/svg"
   xmlns="http://www.w3.org/2000/svg"
   xmlns:sodipodi="http://sodipodi.sourceforge.net/DTD/sodipodi-0.dtd"
   xmlns:inkscape="http://www.inkscape.org/namespaces/inkscape"
   viewBox="0 0 512 512"
   version="1.1"
   id="svg4"
   sodipodi:docname="times-solid-icon.svg"
   width="384pt"
   height="384pt"
   inkscape:version="0.92.5 (2060ec1f9f, 2020-04-08)">
  <metadata
     id="metadata10">
    <rdf:RDF>
      <cc:Work
         rdf:about="">
        <dc:format>image/svg+xml</dc:format>
        <dc:type
           rdf:resource="http://purl.org/dc/dcmitype/StillImage" />
        <dc:title></dc:title>
      </cc:Work>
    </rdf:RDF>
  </metadata>
  <defs
     id="defs8" />
  <sodipodi:namedview
     pagecolor="#ffffff"
     bordercolor="#666666"
     borderopacity="1"
     objecttolerance="10"
     gridtolerance="10"
     guidetolerance="10"
     inkscape:pageopacity="0"
     inkscape:pageshadow="2"
     inkscape:window-width="1848"
     inkscape:window-height="1016"
     id="namedview6"
     showgrid="false"
     inkscape:document-units="pt"
     units="pt"
     inkscape:zoom="0.4609375"
     inkscape:cx="176"
     inkscape:cy="256"
     inkscape:window-x="72"
     inkscape:window-y="27"
     inkscape:window-maximized="1"
     inkscape:current-layer="svg4" />
  <path
     d="M 353.04728,255.99999 498.60365,110.44362 c 17.86182,-17.861814 17.86182,-46.821815 0,-64.698179 L 466.25456,13.396349 c -17.86182,-17.861819 -46.82182,-17.861819 -64.69818,0 L 256.00001,158.95272 110.44364,13.396349 c -17.861819,-17.861819 -46.82182,-17.861819 -64.698184,0 L 13.396364,45.745441 c -17.8618187,17.861819 -17.8618187,46.82182 0,64.698179 L 158.95273,255.99999 13.396364,401.55636 c -17.8618187,17.86181 -17.8618187,46.82182 0,64.69818 l 32.349092,32.34909 c 17.861819,17.86182 46.836365,17.86182 64.698184,0 L 256.00001,353.04726 401.55638,498.60363 c 17.86181,17.86182 46.83636,17.86182 64.69818,0 l 32.34909,-32.34909 c 17.86182,-17.86182 17.86182,-46.82182 0,-64.69818 z"
     id="path2"
     inkscape:connector-curvature="0"
     style="stroke-width:1;fill:#aa0000" />
</svg>
