<?xml version="1.0" encoding="UTF-8" standalone="no"?>
<svg
   xmlns:dc="http://purl.org/dc/elements/1.1/"
   xmlns:cc="http://creativecommons.org/ns#"
   xmlns:rdf="http://www.w3.org/1999/02/22-rdf-syntax-ns#"
   xmlns:svg="http://www.w3.org/2000/svg"
   xmlns="http://www.w3.org/2000/svg"
   xmlns:sodipodi="http://sodipodi.sourceforge.net/DTD/sodipodi-0.dtd"
   xmlns:inkscape="http://www.inkscape.org/namespaces/inkscape"
   viewBox="0 0 512 512"
   version="1.1"
   id="svg4"
   sodipodi:docname="cog-regular-light-icon.svg"
   width="384pt"
   height="384pt"
   inkscape:version="0.92.5 (2060ec1f9f, 2020-04-08)">
  <metadata
     id="metadata10">
    <rdf:RDF>
      <cc:Work
         rdf:about="">
        <dc:format>image/svg+xml</dc:format>
        <dc:type
           rdf:resource="http://purl.org/dc/dcmitype/StillImage" />
        <dc:title></dc:title>
      </cc:Work>
    </rdf:RDF>
  </metadata>
  <defs
     id="defs8" />
  <sodipodi:namedview
     pagecolor="#ffffff"
     bordercolor="#666666"
     borderopacity="1"
     objecttolerance="10"
     gridtolerance="10"
     guidetolerance="10"
     inkscape:pageopacity="0"
     inkscape:pageshadow="2"
     inkscape:window-width="1848"
     inkscape:window-height="1016"
     id="namedview6"
     showgrid="false"
     inkscape:document-units="pt"
     units="pt"
     inkscape:zoom="0.4609375"
     inkscape:cx="256"
     inkscape:cy="256"
     inkscape:window-x="72"
     inkscape:window-y="27"
     inkscape:window-maximized="1"
     inkscape:current-layer="svg4" />
  <path
     d="m 458.85434,236.38792 32.87021,-18.97498 c 9.73007,-5.61652 14.4475,-17.07562 11.53756,-27.92673 -11.77188,-43.903 -34.9337,-83.14535 -66.12443,-114.371176 -7.92775,-7.936005 -20.20647,-9.544264 -29.92003,-3.933938 L 374.40731,90.131303 A 202.60763,202.60763 0 0 0 340.44703,70.497741 V 32.559133 A 24.790727,24.790727 0 0 0 322.02946,8.6045354 C 278.92131,-2.8607631 233.13443,-2.8752151 189.9726,8.6035031 179.11427,11.491763 171.55297,21.321964 171.55297,32.558101 V 70.496709 A 202.60763,202.60763 0 0 0 137.59269,90.130271 L 104.78234,71.180064 C 95.068791,65.569737 82.79007,67.177997 74.862322,75.114002 43.67159,106.33983 20.509767,145.58115 8.7378884,189.48518 c -2.909938,10.8511 1.8074846,22.31021 11.5375556,27.92673 l 32.870217,18.97601 a 204.09305,204.09305 0 0 0 0,39.2248 l -32.870217,18.97499 c -9.730071,5.61652 -14.4474936,17.07562 -11.5375556,27.92672 11.7718786,43.903 34.9337016,83.14535 66.1244336,114.37118 7.927748,7.93601 20.206469,9.54427 29.920018,3.93394 l 32.81035,-18.95021 a 202.53124,202.53124 0 0 0 33.96028,19.63253 v 37.93861 a 24.790727,24.790727 0 0 0 18.41756,23.9546 c 43.10816,11.4653 88.89503,11.48078 132.05687,10e-4 10.85833,-2.88826 18.41963,-12.71846 18.41963,-23.9546 v -37.9386 a 202.67369,202.67369 0 0 0 33.96028,-19.63253 l 32.81034,18.9502 c 9.71356,5.61033 21.99228,4.00207 29.92003,-3.93393 31.19073,-31.22583 54.35255,-70.46818 66.12443,-114.37118 2.90994,-10.85111 -1.80749,-22.31021 -11.53756,-27.92673 l -32.87021,-18.97498 c 1.25935,-13.05808 1.25935,-26.16776 0,-39.22584 z m -54.37836,65.05192 45.23254,26.10479 a 206.59421,206.59421 0 0 1 -34.94092,60.41604 l -45.24288,-26.12543 c -33.01576,28.28079 -37.84157,31.04724 -78.62508,45.44932 v 52.23126 a 207.39834,207.39834 0 0 1 -69.79928,0 V 407.28456 C 180.32201,392.88455 175.47865,390.10571 142.47527,361.83524 L 97.232401,387.96067 A 206.6066,206.6066 0 0 1 62.291474,327.54463 l 45.232546,-26.10479 c -7.876129,-42.63126 -7.880259,-48.2261 0,-90.878 L 62.291474,184.45705 c 8.103232,-21.91383 19.932918,-42.3732 34.940927,-60.41708 l 45.242869,26.12544 c 33.01577,-28.2808 37.84261,-31.04828 78.62509,-45.44932 V 52.485857 a 207.39834,207.39834 0 0 1 69.79928,0 v 52.231263 c 40.77835,14.40001 45.62171,17.17885 78.62508,45.44932 L 414.7676,124.041 a 206.59937,206.59937 0 0 1 34.94092,60.41708 l -45.23254,26.10479 c 7.87716,42.63229 7.88026,48.22507 0,90.87697 z M 256,156.90399 c -54.64262,0 -99.09685,44.45423 -99.09685,99.09685 0,54.64262 44.45423,99.09684 99.09685,99.09684 54.64262,0 99.09684,-44.45422 99.09684,-99.09684 0,-54.64262 -44.45422,-99.09685 -99.09684,-99.09685 z m 0,148.64527 c -27.32183,0 -49.54842,-22.2266 -49.54842,-49.54842 0,-27.32079 22.22659,-49.54842 49.54842,-49.54842 27.32182,0 49.54842,22.22763 49.54842,49.54842 0,27.32182 -22.2266,49.54842 -49.54842,49.54842 z"
     id="path2"
     inkscape:connector-curvature="0"
     style="stroke-width:1;fill:#e6e6e6" />
</svg>
