<?xml version="1.0" encoding="UTF-8" standalone="no"?>
<svg
   xmlns:dc="http://purl.org/dc/elements/1.1/"
   xmlns:cc="http://creativecommons.org/ns#"
   xmlns:rdf="http://www.w3.org/1999/02/22-rdf-syntax-ns#"
   xmlns:svg="http://www.w3.org/2000/svg"
   xmlns="http://www.w3.org/2000/svg"
   xmlns:sodipodi="http://sodipodi.sourceforge.net/DTD/sodipodi-0.dtd"
   xmlns:inkscape="http://www.inkscape.org/namespaces/inkscape"
   viewBox="0 0 640 640"
   version="1.1"
   id="svg4"
   sodipodi:docname="user-friends-regular-light-icon.svg"
   width="480pt"
   height="480pt"
   inkscape:version="0.92.5 (2060ec1f9f, 2020-04-08)">
  <metadata
     id="metadata10">
    <rdf:RDF>
      <cc:Work
         rdf:about="">
        <dc:format>image/svg+xml</dc:format>
        <dc:type
           rdf:resource="http://purl.org/dc/dcmitype/StillImage" />
        <dc:title></dc:title>
      </cc:Work>
    </rdf:RDF>
  </metadata>
  <defs
     id="defs8" />
  <sodipodi:namedview
     pagecolor="#ffffff"
     bordercolor="#666666"
     borderopacity="1"
     objecttolerance="10"
     gridtolerance="10"
     guidetolerance="10"
     inkscape:pageopacity="0"
     inkscape:pageshadow="2"
     inkscape:window-width="1848"
     inkscape:window-height="1016"
     id="namedview6"
     showgrid="false"
     inkscape:document-units="pt"
     units="pt"
     inkscape:zoom="0.4609375"
     inkscape:cx="-70.508475"
     inkscape:cy="247.32203"
     inkscape:window-x="72"
     inkscape:window-y="27"
     inkscape:window-maximized="1"
     inkscape:current-layer="svg4" />
  <path
     d="m 480,320 c 53,0 96,-43 96,-96 0,-53 -43,-96 -96,-96 -53,0 -96,43 -96,96 0,53 43,96 96,96 z m 0,-144 c 26.5,0 48,21.5 48,48 0,26.5 -21.5,48 -48,48 -26.5,0 -48,-21.5 -48,-48 0,-26.5 21.5,-48 48,-48 z M 272.1,340 c -11.9,0 -23.9,1.7 -35.5,5.3 -14.2,4.3 -29.1,6.7 -44.7,6.7 -15.6,0 -30.5,-2.4 -44.7,-6.7 C 135.6,341.8 123.6,340 111.7,340 75.4,340 40.1,356.2 19.4,386.9 7.2,405.3 0,427.4 0,451.2 V 496 c 0,26.5 21.5,48 48,48 h 288 c 26.5,0 48,-21.5 48,-48 v -44.8 c 0,-23.8 -7.2,-45.9 -19.6,-64.3 C 343.7,356.2 308.4,340 272.1,340 Z M 336,496 H 48 v -44.8 c 0,-28.9 18.4,-53.6 44.1,-63.1 10.3,-3.8 21.6,-3.7 31.9,0 22.1,7.9 45,11.9 68,11.9 23,0 45.8,-4 68.1,-11.9 10.3,-3.7 21.6,-3.8 31.9,0 25.7,9.4 44.1,34.2 44.1,63.1 V 496 Z M 192,320 C 253.9,320 304,269.9 304,208 304,146.1 253.9,96 192,96 130.1,96 80,146.1 80,208 c 0,61.9 50.1,112 112,112 z m 0,-176 c 35.3,0 64,28.7 64,64 0,35.3 -28.7,64 -64,64 -35.3,0 -64,-28.7 -64,-64 0,-35.3 28.7,-64 64,-64 z M 623.7,381.1 C 606.4,355.5 577,342 546.8,342 519,342 512,352 480,352 c -32,0 -39,-10 -66.8,-10 -13.3,0 -26.2,3 -38.2,8.1 5.8,5.9 11.3,12 16,18.9 4.7,7 8.6,14.4 12,22 3.3,-0.7 6.7,-1.1 10.2,-1.1 17.2,0 29.6,10 66.8,10 37.4,0 49.5,-10 66.8,-10 15.7,0 29.5,6.7 37.1,17.9 5.3,7.9 8.1,17.1 8.1,26.7 V 464 H 416 v 32 c 0,5.5 -0.6,10.8 -1.6,16 H 600 c 22.1,0 40,-17.9 40,-40 v -37.3 c 0,-19.9 -6,-38.3 -16.3,-53.6 z"
     id="path2"
     style="fill:#e6e6e6"
     inkscape:connector-curvature="0" />
</svg>
