<?xml version="1.0" encoding="UTF-8" standalone="no"?>
<svg
   xmlns:dc="http://purl.org/dc/elements/1.1/"
   xmlns:cc="http://creativecommons.org/ns#"
   xmlns:rdf="http://www.w3.org/1999/02/22-rdf-syntax-ns#"
   xmlns:svg="http://www.w3.org/2000/svg"
   xmlns="http://www.w3.org/2000/svg"
   xmlns:sodipodi="http://sodipodi.sourceforge.net/DTD/sodipodi-0.dtd"
   xmlns:inkscape="http://www.inkscape.org/namespaces/inkscape"
   viewBox="0 0 512 512"
   version="1.1"
   id="svg4"
   sodipodi:docname="envelope-solid-light-icon.svg"
   width="384pt"
   height="384pt"
   inkscape:version="0.92.5 (2060ec1f9f, 2020-04-08)">
  <metadata
     id="metadata10">
    <rdf:RDF>
      <cc:Work
         rdf:about="">
        <dc:format>image/svg+xml</dc:format>
        <dc:type
           rdf:resource="http://purl.org/dc/dcmitype/StillImage" />
        <dc:title></dc:title>
      </cc:Work>
    </rdf:RDF>
  </metadata>
  <defs
     id="defs8" />
  <sodipodi:namedview
     pagecolor="#ffffff"
     bordercolor="#666666"
     borderopacity="1"
     objecttolerance="10"
     gridtolerance="10"
     guidetolerance="10"
     inkscape:pageopacity="0"
     inkscape:pageshadow="2"
     inkscape:window-width="1848"
     inkscape:window-height="1016"
     id="namedview6"
     showgrid="false"
     inkscape:document-units="pt"
     units="pt"
     inkscape:zoom="0.4609375"
     inkscape:cx="-134.50847"
     inkscape:cy="247.32203"
     inkscape:window-x="72"
     inkscape:window-y="27"
     inkscape:window-maximized="1"
     inkscape:current-layer="svg4" />
  <path
     d="m 502.3,190.8 c 3.9,-3.1 9.7,-0.2 9.7,4.7 V 400 c 0,26.5 -21.5,48 -48,48 H 48 C 21.5,448 0,426.5 0,400 V 195.6 c 0,-5 5.7,-7.8 9.7,-4.7 22.4,17.4 52.1,39.5 154.1,113.6 21.1,15.4 56.7,47.8 92.2,47.6 35.7,0.3 72,-32.8 92.3,-47.6 102,-74.1 131.6,-96.3 154,-113.7 z M 256,320 c 23.2,0.4 56.6,-29.2 73.4,-41.4 132.7,-96.3 142.8,-104.7 173.4,-128.7 5.8,-4.5 9.2,-11.5 9.2,-18.9 V 112 C 512,85.5 490.5,64 464,64 H 48 C 21.5,64 0,85.5 0,112 v 19 c 0,7.4 3.4,14.3 9.2,18.9 30.6,23.9 40.7,32.4 173.4,128.7 16.8,12.2 50.2,41.8 73.4,41.4 z"
     id="path2"
     style="fill:#e6e6e6"
     inkscape:connector-curvature="0" />
</svg>
