<?xml version="1.0" encoding="UTF-8" standalone="no"?>
<svg
   xmlns:dc="http://purl.org/dc/elements/1.1/"
   xmlns:cc="http://creativecommons.org/ns#"
   xmlns:rdf="http://www.w3.org/1999/02/22-rdf-syntax-ns#"
   xmlns:svg="http://www.w3.org/2000/svg"
   xmlns="http://www.w3.org/2000/svg"
   xmlns:sodipodi="http://sodipodi.sourceforge.net/DTD/sodipodi-0.dtd"
   xmlns:inkscape="http://www.inkscape.org/namespaces/inkscape"
   viewBox="0 0 512 512"
   version="1.1"
   id="svg4"
   sodipodi:docname="key-solid-light-icon.svg"
   width="384pt"
   height="384pt"
   inkscape:version="0.92.5 (2060ec1f9f, 2020-04-08)">
  <metadata
     id="metadata10">
    <rdf:RDF>
      <cc:Work
         rdf:about="">
        <dc:format>image/svg+xml</dc:format>
        <dc:type
           rdf:resource="http://purl.org/dc/dcmitype/StillImage" />
        <dc:title></dc:title>
      </cc:Work>
    </rdf:RDF>
  </metadata>
  <defs
     id="defs8" />
  <sodipodi:namedview
     pagecolor="#ffffff"
     bordercolor="#666666"
     borderopacity="1"
     objecttolerance="10"
     gridtolerance="10"
     guidetolerance="10"
     inkscape:pageopacity="0"
     inkscape:pageshadow="2"
     inkscape:window-width="1848"
     inkscape:window-height="1016"
     id="namedview6"
     showgrid="false"
     inkscape:document-units="pt"
     units="pt"
     inkscape:zoom="0.4609375"
     inkscape:cx="-134.50847"
     inkscape:cy="247.32203"
     inkscape:window-x="72"
     inkscape:window-y="27"
     inkscape:window-maximized="1"
     inkscape:current-layer="svg4" />
  <path
     d="M 512,176.001 C 512,273.203 433.202,352 336,352 c -11.22,0 -22.19,-1.062 -32.827,-3.069 l -24.012,27.014 A 23.999,23.999 0 0 1 261.223,384 H 224 v 40 c 0,13.255 -10.745,24 -24,24 h -40 v 40 c 0,13.255 -10.745,24 -24,24 H 24 C 10.745,512 0,501.255 0,488 v -78.059 c 0,-6.365 2.529,-12.47 7.029,-16.971 L 168.831,231.168 C 163.108,213.814 160,195.271 160,176 160,78.798 238.797,0.001 335.999,0 433.488,-0.001 512,78.511 512,176.001 Z M 336,128 c 0,26.51 21.49,48 48,48 26.51,0 48,-21.49 48,-48 0,-26.51 -21.49,-48 -48,-48 -26.51,0 -48,21.49 -48,48 z"
     id="path2"
     style="fill:#e6e6e6"
     inkscape:connector-curvature="0" />
</svg>
