<?xml version="1.0" encoding="UTF-8" standalone="no"?>
<svg
   xmlns:dc="http://purl.org/dc/elements/1.1/"
   xmlns:cc="http://creativecommons.org/ns#"
   xmlns:rdf="http://www.w3.org/1999/02/22-rdf-syntax-ns#"
   xmlns:svg="http://www.w3.org/2000/svg"
   xmlns="http://www.w3.org/2000/svg"
   xmlns:sodipodi="http://sodipodi.sourceforge.net/DTD/sodipodi-0.dtd"
   xmlns:inkscape="http://www.inkscape.org/namespaces/inkscape"
   viewBox="0 0 576 576"
   version="1.1"
   id="svg4"
   sodipodi:docname="leaf-solid-light-icon.svg"
   width="432pt"
   height="432pt"
   inkscape:version="0.92.5 (2060ec1f9f, 2020-04-08)">
  <metadata
     id="metadata10">
    <rdf:RDF>
      <cc:Work
         rdf:about="">
        <dc:format>image/svg+xml</dc:format>
        <dc:type
           rdf:resource="http://purl.org/dc/dcmitype/StillImage" />
        <dc:title></dc:title>
      </cc:Work>
    </rdf:RDF>
  </metadata>
  <defs
     id="defs8" />
  <sodipodi:namedview
     pagecolor="#ffffff"
     bordercolor="#666666"
     borderopacity="1"
     objecttolerance="10"
     gridtolerance="10"
     guidetolerance="10"
     inkscape:pageopacity="0"
     inkscape:pageshadow="2"
     inkscape:window-width="1848"
     inkscape:window-height="1016"
     id="namedview6"
     showgrid="false"
     inkscape:document-units="pt"
     units="pt"
     inkscape:zoom="0.4609375"
     inkscape:cx="285.83051"
     inkscape:cy="256"
     inkscape:window-x="72"
     inkscape:window-y="27"
     inkscape:window-maximized="1"
     inkscape:current-layer="svg4" />
  <path
     d="m 546.17264,41.689306 c -5.6,-12.5 -21.6,-13 -28.3,-1.2 -31,53.9 -86.5,87.500004 -149.9,87.500004 h -80 c -106,0 -191.999997,86 -191.999997,192 0,7 0.8,13.7 1.5,20.5 63.799997,-45.7 155.899997,-84.5 286.499997,-84.5 8.8,0 16,7.2 16,16 0,8.8 -7.2,16 -16,16 -251.4,0 -357.999997,154.1 -381.5999968,212 -6.6,16.3 1.2,34.9 17.4999998,41.6 16.4,6.8 35,-1.1 41.8,-17.3 1.5,-3.6 20.9,-47.9 71.899997,-90.6 32.4,43.9 94,85.8 174.9,77.2 157,-11.4 267.5,-152.2 267.5,-324.6 0,-50.2 -10.8,-102.200004 -29.8,-144.600004 z"
     id="path2"
     inkscape:connector-curvature="0"
     style="fill:#e6e6e6" />
</svg>
