<?xml version="1.0" encoding="UTF-8" standalone="no"?>
<svg
   xmlns:dc="http://purl.org/dc/elements/1.1/"
   xmlns:cc="http://creativecommons.org/ns#"
   xmlns:rdf="http://www.w3.org/1999/02/22-rdf-syntax-ns#"
   xmlns:svg="http://www.w3.org/2000/svg"
   xmlns="http://www.w3.org/2000/svg"
   xmlns:sodipodi="http://sodipodi.sourceforge.net/DTD/sodipodi-0.dtd"
   xmlns:inkscape="http://www.inkscape.org/namespaces/inkscape"
   viewBox="0 0 512 512"
   version="1.1"
   id="svg4"
   sodipodi:docname="plus-solid-light-icon.svg"
   width="384pt"
   height="384pt"
   inkscape:version="0.92.5 (2060ec1f9f, 2020-04-08)">
  <metadata
     id="metadata10">
    <rdf:RDF>
      <cc:Work
         rdf:about="">
        <dc:format>image/svg+xml</dc:format>
        <dc:type
           rdf:resource="http://purl.org/dc/dcmitype/StillImage" />
        <dc:title></dc:title>
      </cc:Work>
    </rdf:RDF>
  </metadata>
  <defs
     id="defs8" />
  <sodipodi:namedview
     pagecolor="#ffffff"
     bordercolor="#666666"
     borderopacity="1"
     objecttolerance="10"
     gridtolerance="10"
     guidetolerance="10"
     inkscape:pageopacity="0"
     inkscape:pageshadow="2"
     inkscape:window-width="1848"
     inkscape:window-height="1016"
     id="namedview6"
     showgrid="false"
     inkscape:document-units="pt"
     units="pt"
     inkscape:zoom="0.4609375"
     inkscape:cx="-166.50847"
     inkscape:cy="247.32203"
     inkscape:window-x="72"
     inkscape:window-y="27"
     inkscape:window-maximized="1"
     inkscape:current-layer="svg4" />
  <path
     d="M 475.42855,201.14287 H 310.85713 V 36.571445 C 310.85713,16.37716 294.47999,1.8e-5 274.2857,1.8e-5 h -36.57142 c -20.19429,0 -36.57143,16.377142 -36.57143,36.571427 V 201.14287 H 36.571427 C 16.377142,201.14287 0,217.52001 0,237.7143 v 36.57142 c 0,20.19429 16.377142,36.57143 36.571427,36.57143 H 201.14285 v 164.57142 c 0,20.19429 16.37714,36.57143 36.57143,36.57143 h 36.57142 c 20.19429,0 36.57143,-16.37714 36.57143,-36.57143 V 310.85715 h 164.57142 c 20.19429,0 36.57143,-16.37714 36.57143,-36.57143 V 237.7143 c 0,-20.19429 -16.37714,-36.57143 -36.57143,-36.57143 z"
     id="path2"
     style="fill:#e6e6e6;stroke-width:0.99999994"
     inkscape:connector-curvature="0" />
</svg>
