<?xml version="1.0" encoding="UTF-8" standalone="no"?>
<svg
   xmlns:dc="http://purl.org/dc/elements/1.1/"
   xmlns:cc="http://creativecommons.org/ns#"
   xmlns:rdf="http://www.w3.org/1999/02/22-rdf-syntax-ns#"
   xmlns:svg="http://www.w3.org/2000/svg"
   xmlns="http://www.w3.org/2000/svg"
   xmlns:sodipodi="http://sodipodi.sourceforge.net/DTD/sodipodi-0.dtd"
   xmlns:inkscape="http://www.inkscape.org/namespaces/inkscape"
   viewBox="0 0 512 512"
   version="1.1"
   id="svg4"
   sodipodi:docname="thumbtack-solid-light-icon.svg"
   width="384pt"
   height="384pt"
   inkscape:version="0.92.5 (2060ec1f9f, 2020-04-08)">
  <metadata
     id="metadata10">
    <rdf:RDF>
      <cc:Work
         rdf:about="">
        <dc:format>image/svg+xml</dc:format>
        <dc:type
           rdf:resource="http://purl.org/dc/dcmitype/StillImage" />
        <dc:title></dc:title>
      </cc:Work>
    </rdf:RDF>
  </metadata>
  <defs
     id="defs8" />
  <sodipodi:namedview
     pagecolor="#ffffff"
     bordercolor="#666666"
     borderopacity="1"
     objecttolerance="10"
     gridtolerance="10"
     guidetolerance="10"
     inkscape:pageopacity="0"
     inkscape:pageshadow="2"
     inkscape:window-width="1848"
     inkscape:window-height="1016"
     id="namedview6"
     showgrid="false"
     units="pt"
     inkscape:document-units="pt"
     inkscape:zoom="0.4609375"
     inkscape:cx="192"
     inkscape:cy="256"
     inkscape:window-x="72"
     inkscape:window-y="27"
     inkscape:window-maximized="1"
     inkscape:current-layer="svg4" />
  <path
     d="M 362.0275,214.26669 349.7925,95.999687 h 42.207 c 13.255,0 24,-10.745 24,-24 v -48 c 0,-13.255 -10.745,-23.99999998169 -24,-23.99999998169 h -272 c -13.255,0 -24,10.74499998169 -24,23.99999998169 v 48 c 0,13.255 10.745,24 24,24 h 42.207 l -12.235,118.267003 c -48.507,22.553 -85.972,62.994 -85.972,113.733 0,13.255 10.745,24 24,24 h 136 v 104.007 c 0,1.242 0.289,2.467 0.845,3.578 l 24,48 c 2.941,5.882 11.364,5.893 14.311,0 l 24,-48 a 8.008,8.008 0 0 0 0.845,-3.578 v -104.007 h 136 c 13.255,0 24,-10.745 24,-24 -10e-4,-51.183 -37.983,-91.42 -85.973,-113.733 z"
     id="path2"
     inkscape:connector-curvature="0"
     style="fill:#e6e6e6" />
</svg>
