<?xml version="1.0" encoding="UTF-8" standalone="no"?>
<svg
   xmlns:dc="http://purl.org/dc/elements/1.1/"
   xmlns:cc="http://creativecommons.org/ns#"
   xmlns:rdf="http://www.w3.org/1999/02/22-rdf-syntax-ns#"
   xmlns:svg="http://www.w3.org/2000/svg"
   xmlns="http://www.w3.org/2000/svg"
   xmlns:sodipodi="http://sodipodi.sourceforge.net/DTD/sodipodi-0.dtd"
   xmlns:inkscape="http://www.inkscape.org/namespaces/inkscape"
   viewBox="0 0 640 640"
   version="1.1"
   id="svg4"
   sodipodi:docname="users-solid-light-icon.svg"
   width="480pt"
   height="480pt"
   inkscape:version="0.92.5 (2060ec1f9f, 2020-04-08)">
  <metadata
     id="metadata10">
    <rdf:RDF>
      <cc:Work
         rdf:about="">
        <dc:format>image/svg+xml</dc:format>
        <dc:type
           rdf:resource="http://purl.org/dc/dcmitype/StillImage" />
        <dc:title></dc:title>
      </cc:Work>
    </rdf:RDF>
  </metadata>
  <defs
     id="defs8" />
  <sodipodi:namedview
     pagecolor="#ffffff"
     bordercolor="#666666"
     borderopacity="1"
     objecttolerance="10"
     gridtolerance="10"
     guidetolerance="10"
     inkscape:pageopacity="0"
     inkscape:pageshadow="2"
     inkscape:window-width="1848"
     inkscape:window-height="1016"
     id="namedview6"
     showgrid="false"
     inkscape:document-units="pt"
     units="pt"
     inkscape:zoom="0.4609375"
     inkscape:cx="317.83051"
     inkscape:cy="256"
     inkscape:window-x="72"
     inkscape:window-y="27"
     inkscape:window-maximized="1"
     inkscape:current-layer="svg4" />
  <path
     d="m 96,288 c 35.3,0 64,-28.7 64,-64 0,-35.3 -28.7,-64 -64,-64 -35.3,0 -64,28.7 -64,64 0,35.3 28.7,64 64,64 z m 448,0 c 35.3,0 64,-28.7 64,-64 0,-35.3 -28.7,-64 -64,-64 -35.3,0 -64,28.7 -64,64 0,35.3 28.7,64 64,64 z m 32,32 h -64 c -17.6,0 -33.5,7.1 -45.1,18.6 40.3,22.1 68.9,62 75.1,109.4 h 66 c 17.7,0 32,-14.3 32,-32 v -32 c 0,-35.3 -28.7,-64 -64,-64 z m -256,0 c 61.9,0 112,-50.1 112,-112 0,-61.9 -50.1,-112 -112,-112 -61.9,0 -112,50.1 -112,112 0,61.9 50.1,112 112,112 z m 76.8,32 h -8.3 c -20.8,10 -43.9,16 -68.5,16 -24.6,0 -47.6,-6 -68.5,-16 h -8.3 C 179.6,352 128,403.6 128,467.2 V 496 c 0,26.5 21.5,48 48,48 h 288 c 26.5,0 48,-21.5 48,-48 V 467.2 C 512,403.6 460.4,352 396.8,352 Z M 173.1,338.6 C 161.5,327.1 145.6,320 128,320 H 64 C 28.7,320 0,348.7 0,384 v 32 c 0,17.7 14.3,32 32,32 h 65.9 c 6.3,-47.4 34.9,-87.3 75.2,-109.4 z"
     id="path2"
     inkscape:connector-curvature="0"
     style="fill:#e6e6e6" />
</svg>
