<?xml version="1.0" encoding="UTF-8" standalone="no"?>
<svg
   xmlns:dc="http://purl.org/dc/elements/1.1/"
   xmlns:cc="http://creativecommons.org/ns#"
   xmlns:rdf="http://www.w3.org/1999/02/22-rdf-syntax-ns#"
   xmlns:svg="http://www.w3.org/2000/svg"
   xmlns="http://www.w3.org/2000/svg"
   xmlns:sodipodi="http://sodipodi.sourceforge.net/DTD/sodipodi-0.dtd"
   xmlns:inkscape="http://www.inkscape.org/namespaces/inkscape"
   viewBox="0 0 512 512"
   version="1.1"
   id="svg4"
   sodipodi:docname="flag-solid-blue-icon.svg"
   width="384pt"
   height="384pt"
   inkscape:version="0.92.5 (2060ec1f9f, 2020-04-08)">
  <metadata
     id="metadata10">
    <rdf:RDF>
      <cc:Work
         rdf:about="">
        <dc:format>image/svg+xml</dc:format>
        <dc:type
           rdf:resource="http://purl.org/dc/dcmitype/StillImage" />
        <dc:title />
      </cc:Work>
    </rdf:RDF>
  </metadata>
  <defs
     id="defs8" />
  <sodipodi:namedview
     pagecolor="#ffffff"
     bordercolor="#666666"
     borderopacity="1"
     objecttolerance="10"
     gridtolerance="10"
     guidetolerance="10"
     inkscape:pageopacity="0"
     inkscape:pageshadow="2"
     inkscape:window-width="1848"
     inkscape:window-height="1016"
     id="namedview6"
     showgrid="false"
     inkscape:document-units="pt"
     units="pt"
     inkscape:zoom="0.4609375"
     inkscape:cx="-132.42109"
     inkscape:cy="247.22364"
     inkscape:window-x="72"
     inkscape:window-y="27"
     inkscape:window-maximized="1"
     inkscape:current-layer="svg4" />
  <path
     d="m 345.565,98.782824 c -53.587,0 -97.844,-34.783 -165.217,-34.783 -24.955,0 -47.309,4.384 -68.045,12.013 a 55.947,55.947 0 0 0 3.586,-23.562 C 114.117,24.014824 90.806,1.2058238 62.338,0.04782385 30.345,-1.2541762 4,24.295824 4,55.999824 c 0,19.026 9.497,35.825 24,45.944996 v 386.055 c 0,13.255 10.745,24 24,24 h 16 c 13.255,0 24,-10.745 24,-24 v -94.4 c 28.311,-12.064 63.582,-22.122 114.435,-22.122 53.588,0 97.844,34.783 165.217,34.783 48.169,0 86.667,-16.294 122.505,-40.858 8.683,-5.951 13.843,-15.832 13.843,-26.358 V 95.944824 c 0,-23.393 -24.269,-38.87 -45.485,-29.016 -34.338,15.948 -76.454,31.854 -116.95,31.854 z"
     id="path2"
     inkscape:connector-curvature="0"
     style="fill:#5599ff" />
</svg>
