<?xml version="1.0" encoding="UTF-8" standalone="no"?>
<svg
   xmlns:dc="http://purl.org/dc/elements/1.1/"
   xmlns:cc="http://creativecommons.org/ns#"
   xmlns:rdf="http://www.w3.org/1999/02/22-rdf-syntax-ns#"
   xmlns:svg="http://www.w3.org/2000/svg"
   xmlns="http://www.w3.org/2000/svg"
   xmlns:sodipodi="http://sodipodi.sourceforge.net/DTD/sodipodi-0.dtd"
   xmlns:inkscape="http://www.inkscape.org/namespaces/inkscape"
   viewBox="0 0 640 640"
   version="1.1"
   id="svg4"
   sodipodi:docname="gamepad-solid-blue-icon.svg"
   width="480pt"
   height="480pt"
   inkscape:version="0.92.5 (2060ec1f9f, 2020-04-08)">
  <metadata
     id="metadata10">
    <rdf:RDF>
      <cc:Work
         rdf:about="">
        <dc:format>image/svg+xml</dc:format>
        <dc:type
           rdf:resource="http://purl.org/dc/dcmitype/StillImage" />
        <dc:title />
      </cc:Work>
    </rdf:RDF>
  </metadata>
  <defs
     id="defs8" />
  <sodipodi:namedview
     pagecolor="#ffffff"
     bordercolor="#666666"
     borderopacity="1"
     objecttolerance="10"
     gridtolerance="10"
     guidetolerance="10"
     inkscape:pageopacity="0"
     inkscape:pageshadow="2"
     inkscape:window-width="1848"
     inkscape:window-height="1016"
     id="namedview6"
     showgrid="false"
     inkscape:document-units="pt"
     units="pt"
     inkscape:zoom="0.4609375"
     inkscape:cx="-70.508475"
     inkscape:cy="247.32203"
     inkscape:window-x="72"
     inkscape:window-y="27"
     inkscape:window-maximized="1"
     inkscape:current-layer="svg4" />
  <path
     d="M 480.07,160 H 160 a 160,160 0 1 0 114.24,272 h 91.52 A 160,160 0 1 0 480.07,160 Z M 248,332 a 12,12 0 0 1 -12,12 h -52 v 52 a 12,12 0 0 1 -12,12 H 148 A 12,12 0 0 1 136,396 V 344 H 84.000003 a 12,12 0 0 1 -12,-12 v -24 a 12,12 0 0 1 12,-12 H 136 v -52 a 12,12 0 0 1 12,-12 h 24 a 12,12 0 0 1 12,12 v 52 h 52 a 12,12 0 0 1 12,12 z m 216,76 a 40,40 0 1 1 40,-40 40,40 0 0 1 -40,40 z m 64,-96 a 40,40 0 1 1 40,-40 40,40 0 0 1 -40,40 z"
     id="path2"
     inkscape:connector-curvature="0"
     style="fill:#5599ff" />
</svg>
