<?xml version="1.0" encoding="UTF-8" standalone="no"?>
<svg
   xmlns:dc="http://purl.org/dc/elements/1.1/"
   xmlns:cc="http://creativecommons.org/ns#"
   xmlns:rdf="http://www.w3.org/1999/02/22-rdf-syntax-ns#"
   xmlns:svg="http://www.w3.org/2000/svg"
   xmlns="http://www.w3.org/2000/svg"
   xmlns:sodipodi="http://sodipodi.sourceforge.net/DTD/sodipodi-0.dtd"
   xmlns:inkscape="http://www.inkscape.org/namespaces/inkscape"
   viewBox="0 0 512 512"
   version="1.1"
   id="svg4"
   sodipodi:docname="lightbulb-solid-blue-icon.svg"
   width="384pt"
   height="384pt"
   inkscape:version="0.92.5 (2060ec1f9f, 2020-04-08)">
  <metadata
     id="metadata10">
    <rdf:RDF>
      <cc:Work
         rdf:about="">
        <dc:format>image/svg+xml</dc:format>
        <dc:type
           rdf:resource="http://purl.org/dc/dcmitype/StillImage" />
        <dc:title />
      </cc:Work>
    </rdf:RDF>
  </metadata>
  <defs
     id="defs8" />
  <sodipodi:namedview
     pagecolor="#ffffff"
     bordercolor="#666666"
     borderopacity="1"
     objecttolerance="10"
     gridtolerance="10"
     guidetolerance="10"
     inkscape:pageopacity="0"
     inkscape:pageshadow="2"
     inkscape:window-width="1848"
     inkscape:window-height="1016"
     id="namedview6"
     showgrid="false"
     inkscape:document-units="pt"
     units="pt"
     inkscape:zoom="0.4609375"
     inkscape:cx="-214.50847"
     inkscape:cy="247.32203"
     inkscape:window-x="72"
     inkscape:window-y="27"
     inkscape:window-maximized="1"
     inkscape:current-layer="svg4" />
  <path
     d="m 176.06,454.34543 c 0.01,6.29 1.87,12.45 5.36,17.69 l 17.09,25.69 a 31.99,31.99 0 0 0 26.64,14.28 h 61.71 a 31.99,31.99 0 0 0 26.64,-14.28 l 17.09,-25.69 a 31.989,31.989 0 0 0 5.36,-17.69 l 0.04,-38.35 H 176.01 Z M 80,175.99543 c 0,44.37 16.45,84.85 43.56,115.78 16.52,18.85 42.36,58.23 52.21,91.45 0.04,0.26 0.07,0.52 0.11,0.78 h 160.24 c 0.04,-0.26 0.07,-0.51 0.11,-0.78 9.85,-33.22 35.69,-72.6 52.21,-91.45 27.11,-30.93 43.56,-71.41 43.56,-115.78 C 432,78.605426 352.91,-0.30457371 255.45,-0.00457371 153.44,0.30542629 80,82.965426 80,175.99543 Z M 256,95.995426 c -44.11,0 -80,35.890004 -80,80.000004 0,8.84 -7.16,16 -16,16 -8.84,0 -16,-7.16 -16,-16 0,-61.76 50.24,-112.000004 112,-112.000004 8.84,0 16,7.16 16,16 0,8.84 -7.16,16 -16,16 z"
     id="path2"
     inkscape:connector-curvature="0"
     style="fill:#5599ff" />
</svg>
