<?xml version="1.0" encoding="UTF-8" standalone="no"?>
<svg
   xmlns:dc="http://purl.org/dc/elements/1.1/"
   xmlns:cc="http://creativecommons.org/ns#"
   xmlns:rdf="http://www.w3.org/1999/02/22-rdf-syntax-ns#"
   xmlns:svg="http://www.w3.org/2000/svg"
   xmlns="http://www.w3.org/2000/svg"
   xmlns:sodipodi="http://sodipodi.sourceforge.net/DTD/sodipodi-0.dtd"
   xmlns:inkscape="http://www.inkscape.org/namespaces/inkscape"
   viewBox="0 0 512 512"
   version="1.1"
   id="svg4"
   sodipodi:docname="smile-solid-blue-icon.svg"
   width="384pt"
   height="384pt"
   inkscape:version="0.92.5 (2060ec1f9f, 2020-04-08)">
  <metadata
     id="metadata10">
    <rdf:RDF>
      <cc:Work
         rdf:about="">
        <dc:format>image/svg+xml</dc:format>
        <dc:type
           rdf:resource="http://purl.org/dc/dcmitype/StillImage" />
        <dc:title />
      </cc:Work>
    </rdf:RDF>
  </metadata>
  <defs
     id="defs8" />
  <sodipodi:namedview
     pagecolor="#ffffff"
     bordercolor="#666666"
     borderopacity="1"
     objecttolerance="10"
     gridtolerance="10"
     guidetolerance="10"
     inkscape:pageopacity="0"
     inkscape:pageshadow="2"
     inkscape:window-width="1848"
     inkscape:window-height="1016"
     id="namedview6"
     showgrid="false"
     inkscape:document-units="pt"
     units="pt"
     inkscape:zoom="0.4609375"
     inkscape:cx="-142.50847"
     inkscape:cy="247.32203"
     inkscape:window-x="72"
     inkscape:window-y="27"
     inkscape:window-maximized="1"
     inkscape:current-layer="svg4" />
  <path
     d="M 256,-1.01e-5 C 114.58064,-1.01e-5 -1e-5,114.58064 -1e-5,256 -1e-5,397.41936 114.58064,512.00001 256,512.00001 397.41936,512.00001 512.00001,397.41936 512.00001,256 512.00001,114.58064 397.41936,-1.01e-5 256,-1.01e-5 Z M 338.58065,173.41935 c 18.27097,0 33.03226,14.76129 33.03226,33.03226 0,18.27097 -14.76129,33.03226 -33.03226,33.03226 -18.27097,0 -33.03226,-14.76129 -33.03226,-33.03226 0,-18.27097 14.76129,-33.03226 33.03226,-33.03226 z m -165.1613,0 c 18.27097,0 33.03226,14.76129 33.03226,33.03226 0,18.27097 -14.76129,33.03226 -33.03226,33.03226 -18.27097,0 -33.03226,-14.76129 -33.03226,-33.03226 0,-18.27097 14.76129,-33.03226 33.03226,-33.03226 z M 374.50323,349.10968 C 345.08387,384.41291 301.93548,404.64517 256,404.64517 c -45.93549,0 -89.08388,-20.23226 -118.50323,-55.53549 -14.03871,-16.82581 11.35484,-37.88387 25.39355,-21.16129 23.12258,27.76774 56.98065,43.56129 93.10968,43.56129 36.12903,0 69.9871,-15.89677 93.10968,-43.56129 13.83226,-16.72258 39.32903,4.33548 25.39355,21.16129 z"
     id="path2"
     style="fill:#5599ff;stroke-width:1"
     inkscape:connector-curvature="0" />
</svg>
