<?xml version="1.0" encoding="UTF-8" standalone="no"?>
<svg
   xmlns:dc="http://purl.org/dc/elements/1.1/"
   xmlns:cc="http://creativecommons.org/ns#"
   xmlns:rdf="http://www.w3.org/1999/02/22-rdf-syntax-ns#"
   xmlns:svg="http://www.w3.org/2000/svg"
   xmlns="http://www.w3.org/2000/svg"
   xmlns:sodipodi="http://sodipodi.sourceforge.net/DTD/sodipodi-0.dtd"
   xmlns:inkscape="http://www.inkscape.org/namespaces/inkscape"
   viewBox="0 0 1024 512"
   version="1.1"
   id="svg4"
   sodipodi:docname="default-image.svg"
   width="768pt"
   height="384pt"
   inkscape:version="0.92.5 (2060ec1f9f, 2020-04-08)">
  <metadata
     id="metadata10">
    <rdf:RDF>
      <cc:Work
         rdf:about="">
        <dc:format>image/svg+xml</dc:format>
        <dc:type
           rdf:resource="http://purl.org/dc/dcmitype/StillImage" />
        <dc:title></dc:title>
      </cc:Work>
    </rdf:RDF>
  </metadata>
  <defs
     id="defs8" />
  <sodipodi:namedview
     pagecolor="#ffffff"
     bordercolor="#666666"
     borderopacity="1"
     objecttolerance="10"
     gridtolerance="10"
     guidetolerance="10"
     inkscape:pageopacity="0"
     inkscape:pageshadow="2"
     inkscape:window-width="1848"
     inkscape:window-height="1016"
     id="namedview6"
     showgrid="false"
     inkscape:document-units="pt"
     units="pt"
     inkscape:zoom="0.92187499"
     inkscape:cx="576.42238"
     inkscape:cy="327.86339"
     inkscape:window-x="72"
     inkscape:window-y="27"
     inkscape:window-maximized="1"
     inkscape:current-layer="svg4" />
  <g
     id="g13">
    <rect
       y="-1.6506348e-08"
       x="0"
       height="511.99997"
       width="1024"
       id="rect874"
       style="fill:#ff6600;fill-opacity:1;stroke:none;stroke-width:0.5333333;stroke-miterlimit:4;stroke-dasharray:none;stroke-opacity:1" />
    <path
       style="fill:#e6e6e6;stroke-width:1"
       inkscape:connector-curvature="0"
       id="path2"
       d="m 622.5,358 h -221 C 387.41656,358 376,346.58344 376,332.5 v -153 c 0,-14.08343 11.41656,-25.5 25.5,-25.5 h 221 c 14.08344,0 25.5,11.41657 25.5,25.5 v 153 c 0,14.08344 -11.41656,25.5 -25.5,25.5 z m -187,-174.25 c -16.4305,0 -29.75,13.3195 -29.75,29.75 0,16.4305 13.3195,29.75 29.75,29.75 16.4305,0 29.75,-13.3195 29.75,-29.75 0,-16.4305 -13.3195,-29.75 -29.75,-29.75 z M 410,324 h 204 v -59.5 l -46.49234,-46.49234 c -2.48944,-2.48943 -6.52588,-2.48943 -9.01585,0 L 486.5,290 457.00766,260.50766 c -2.48944,-2.48943 -6.52588,-2.48943 -9.01585,0 L 410,298.5 Z" />
  </g>
</svg>
