<?xml version="1.0" encoding="UTF-8" standalone="no"?>
<svg
   xmlns:dc="http://purl.org/dc/elements/1.1/"
   xmlns:cc="http://creativecommons.org/ns#"
   xmlns:rdf="http://www.w3.org/1999/02/22-rdf-syntax-ns#"
   xmlns:svg="http://www.w3.org/2000/svg"
   xmlns="http://www.w3.org/2000/svg"
   xmlns:sodipodi="http://sodipodi.sourceforge.net/DTD/sodipodi-0.dtd"
   xmlns:inkscape="http://www.inkscape.org/namespaces/inkscape"
   viewBox="0 0 512 512"
   version="1.1"
   id="svg246"
   sodipodi:docname="default-avatar.svg"
   width="384pt"
   height="384pt"
   inkscape:version="0.92.5 (2060ec1f9f, 2020-04-08)">
  <metadata
     id="metadata252">
    <rdf:RDF>
      <cc:Work
         rdf:about="">
        <dc:format>image/svg+xml</dc:format>
        <dc:type
           rdf:resource="http://purl.org/dc/dcmitype/StillImage" />
        <dc:title />
      </cc:Work>
    </rdf:RDF>
  </metadata>
  <defs
     id="defs250" />
  <sodipodi:namedview
     pagecolor="#ffffff"
     bordercolor="#666666"
     borderopacity="1"
     objecttolerance="10"
     gridtolerance="10"
     guidetolerance="10"
     inkscape:pageopacity="0"
     inkscape:pageshadow="2"
     inkscape:window-width="1848"
     inkscape:window-height="1016"
     id="namedview248"
     showgrid="false"
     inkscape:document-units="pt"
     units="pt"
     inkscape:zoom="0.32593203"
     inkscape:cx="535.28424"
     inkscape:cy="731.35412"
     inkscape:window-x="72"
     inkscape:window-y="27"
     inkscape:window-maximized="1"
     inkscape:current-layer="svg246" />
  <g
     id="g13">
    <rect
       y="-1.6506348e-08"
       x="0"
       height="511.99997"
       width="511.99997"
       id="rect7"
       style="fill:#ff6600;fill-opacity:1;stroke:none;stroke-width:0.5333333;stroke-miterlimit:4;stroke-dasharray:none;stroke-opacity:1" />
    <path
       style="fill:#ffffff;stroke-width:0.99999994"
       inkscape:connector-curvature="0"
       id="path244"
       d="m 256,256 c 39.76875,0 72,-32.23125 72,-72 0,-39.76875 -32.23125,-72 -72,-72 -39.76875,0 -72,32.23125 -72,72 0,39.76875 32.23125,72 72,72 z m 50.4,18 h -9.39375 c -12.4875,5.7375 -26.38125,9 -41.00625,9 -14.625,0 -28.4625,-3.2625 -41.00625,-9 H 205.6 C 163.8625,274 130,307.8625 130,349.6 V 373 c 0,14.90625 12.09375,27 27,27 h 198 c 14.90625,0 27,-12.09375 27,-27 V 349.6 C 382,307.8625 348.1375,274 306.4,274 Z" />
  </g>
</svg>
